<svg width="24" height="24" viewBox="0 0 24 24" fill="none" xmlns="http://www.w3.org/2000/svg">
<path d="M17.9699 14V10C17.9699 8.4087 17.3377 6.88257 16.2125 5.75735C15.0873 4.63214 13.5612 4 11.9699 4C10.3786 4 8.85244 4.63214 7.72722 5.75735C6.60201 6.88257 5.96987 8.4087 5.96987 10V14C5.39965 14.0199 4.86069 14.2655 4.47155 14.6827C4.08242 15.1 3.87497 15.6548 3.89486 16.225C3.91476 16.7952 4.16035 17.3342 4.57762 17.7233C4.99489 18.1125 5.54965 18.3199 6.11987 18.3H17.8199C18.3901 18.3199 18.9448 18.1125 19.3621 17.7233C19.7794 17.3342 20.025 16.7952 20.0449 16.225C20.0648 15.6548 19.8573 15.1 19.4682 14.6827C19.079 14.2655 18.5401 14.0199 17.9699 14Z" fill="#6951FF"/>
<path d="M13.9101 18.59H10.0601C9.93729 18.5916 9.81729 18.627 9.71324 18.6923C9.60919 18.7575 9.52507 18.8501 9.47009 18.96C9.4196 19.0737 9.4013 19.1991 9.41717 19.3226C9.43304 19.446 9.48249 19.5627 9.5601 19.66C9.85569 20.0165 10.2262 20.3035 10.6454 20.5004C11.0646 20.6974 11.522 20.7995 11.9851 20.7995C12.4482 20.7995 12.9056 20.6974 13.3248 20.5004C13.7439 20.3035 14.1145 20.0165 14.4101 19.66C14.4898 19.5638 14.5406 19.4469 14.5565 19.323C14.5724 19.1991 14.5529 19.0732 14.5001 18.96C14.4451 18.8501 14.361 18.7575 14.2569 18.6923C14.1529 18.627 14.0329 18.5916 13.9101 18.59Z" fill="#6951FF"/>
</svg>

