<svg width="20" height="21" viewBox="0 0 20 21" fill="none" xmlns="http://www.w3.org/2000/svg">
<path d="M15.025 14.0917L13.6833 12.7833L14.825 11.6833C14.9594 11.5555 15.0664 11.4017 15.1395 11.2312C15.2126 11.0607 15.2502 10.8771 15.25 10.6917V4.37499C15.25 4.01032 15.1051 3.66058 14.8473 3.40272C14.5894 3.14486 14.2397 3 13.875 3H5.54166C5.17699 3 4.82726 3.14486 4.5694 3.40272C4.31153 3.66058 4.16667 4.01032 4.16667 4.37499V10.65C4.18254 10.8785 4.24378 11.1016 4.3468 11.3062C4.44981 11.5108 4.59254 11.6928 4.76667 11.8417L5.91667 12.9667L4.54165 14.275C4.42164 14.3871 4.32576 14.5226 4.25985 14.673C4.19394 14.8234 4.1594 14.9857 4.15833 15.15C4.15971 15.3154 4.19437 15.4789 4.26023 15.6306C4.32608 15.7824 4.42178 15.9193 4.54165 16.0333L6.58333 17.975C6.82168 18.2011 7.13812 18.3265 7.46666 18.325C7.79553 18.3283 8.1126 18.2026 8.34999 17.975L9.71667 16.675L11.0333 17.9583C11.2786 18.1941 11.6056 18.3258 11.9458 18.3258C12.286 18.3258 12.6131 18.1941 12.8583 17.9583L14.9917 15.875C15.1138 15.7575 15.2108 15.6164 15.2767 15.4602C15.3426 15.3041 15.376 15.1361 15.375 14.9667C15.3778 14.6403 15.2521 14.326 15.025 14.0917ZM7.64165 17.225C7.60363 17.2584 7.55478 17.2768 7.50417 17.2768C7.45356 17.2768 7.40468 17.2584 7.36666 17.225L5.30833 15.2833C5.2928 15.2717 5.28021 15.2566 5.27153 15.2392C5.26285 15.2219 5.25833 15.2027 5.25833 15.1833C5.25897 15.1652 5.26382 15.1475 5.2725 15.1316C5.28118 15.1157 5.29345 15.102 5.30833 15.0917L6.72501 13.775L8.97499 15.975L7.64165 17.225ZM14.2667 15.1333L12.1333 17.2167C12.0916 17.2559 12.0365 17.2778 11.9792 17.2778C11.9219 17.2778 11.8667 17.2559 11.825 17.2167L10.1583 15.55L7.34166 12.8083L5.625 11.1417C5.60158 11.1098 5.57348 11.0817 5.54166 11.0583C5.40977 10.9557 5.31591 10.812 5.27499 10.65V4.37499C5.27499 4.29764 5.30571 4.22346 5.36041 4.16876C5.41511 4.11406 5.48931 4.08332 5.56666 4.08332H13.9C13.9383 4.08332 13.9762 4.09087 14.0116 4.10552C14.047 4.12018 14.0792 4.14168 14.1062 4.16876C14.1333 4.19584 14.1548 4.22799 14.1695 4.26338C14.1841 4.29876 14.1917 4.33669 14.1917 4.37499V10.6917C14.1897 10.7705 14.1567 10.8453 14.1 10.9L12.5583 12.3917C12.5056 12.4415 12.4636 12.5016 12.4349 12.5682C12.4063 12.6348 12.3915 12.7066 12.3915 12.7792C12.3915 12.8517 12.4063 12.9235 12.4349 12.9901C12.4636 13.0567 12.5056 13.1168 12.5583 13.1667L14.2917 14.8333C14.3104 14.8501 14.3253 14.8706 14.3354 14.8936C14.3454 14.9166 14.3504 14.9415 14.35 14.9667C14.3523 14.9993 14.3457 15.0321 14.3311 15.0614C14.3164 15.0907 14.2942 15.1155 14.2667 15.1333Z" fill="#6951FF"/>
<path d="M11.4416 6.00833L10.45 6.79166C10.3371 6.8818 10.2641 7.01275 10.247 7.15621C10.2298 7.29967 10.2698 7.44411 10.3583 7.55833C10.4096 7.62143 10.4744 7.67217 10.548 7.7068C10.6216 7.74142 10.702 7.75903 10.7833 7.75833C10.9075 7.7618 11.0288 7.72038 11.125 7.64167L12.1083 6.85833C12.1776 6.82032 12.2377 6.76761 12.2844 6.7039C12.3312 6.64019 12.3634 6.56702 12.3789 6.48953C12.3944 6.41204 12.3927 6.33211 12.374 6.25533C12.3553 6.17855 12.3201 6.10679 12.2707 6.04509C12.2213 5.98338 12.1591 5.93322 12.0883 5.89813C12.0175 5.86304 11.9398 5.84387 11.8608 5.84196C11.7818 5.84004 11.7034 5.85544 11.631 5.88706C11.5585 5.91868 11.4939 5.96576 11.4416 6.025V6.00833Z" fill="#6951FF"/>
<path d="M8.25836 8.54171L7.30834 9.2917C7.19598 9.38035 7.12326 9.50987 7.10609 9.65196C7.08891 9.79405 7.12868 9.93717 7.21669 10.05C7.26755 10.1142 7.33209 10.1662 7.40562 10.2023C7.47915 10.2383 7.55979 10.2575 7.64167 10.2584C7.76503 10.2566 7.88466 10.2157 7.98334 10.1417L8.92501 9.38337C9.03552 9.29496 9.10638 9.16628 9.122 9.02563C9.13763 8.88497 9.09676 8.74388 9.00835 8.63337C8.91995 8.52287 8.79126 8.452 8.65061 8.43637C8.50996 8.42074 8.36886 8.46163 8.25836 8.55004V8.54171Z" fill="#6951FF"/>
<path d="M7.98332 6.00824C7.93054 5.95133 7.86614 5.90645 7.79449 5.8766C7.72285 5.84676 7.64562 5.83266 7.56805 5.83527C7.49048 5.83787 7.41438 5.85711 7.34489 5.89168C7.27541 5.92626 7.21415 5.97538 7.1653 6.03569C7.11644 6.096 7.08114 6.1661 7.06174 6.24125C7.04234 6.3164 7.03933 6.39486 7.05289 6.47128C7.06645 6.5477 7.09628 6.62031 7.14035 6.6842C7.18442 6.74809 7.2417 6.80175 7.30832 6.84157L8.29165 7.62491C8.38851 7.70233 8.50933 7.74359 8.63332 7.74157C8.71463 7.74227 8.79506 7.72466 8.86864 7.69003C8.94221 7.65541 9.00704 7.60468 9.05833 7.54158C9.14681 7.42736 9.18679 7.28292 9.16964 7.13946C9.15249 6.996 9.07959 6.86505 8.96667 6.77491L7.98332 6.00824Z" fill="#6951FF"/>
<path d="M11.1417 8.54145C11.0889 8.48455 11.0245 8.43965 10.9528 8.40981C10.8812 8.37996 10.804 8.36587 10.7264 8.36847C10.6488 8.37107 10.5727 8.39031 10.5032 8.42489C10.4338 8.45947 10.3725 8.50858 10.3236 8.56889C10.2748 8.6292 10.2395 8.69931 10.2201 8.77447C10.2007 8.84962 10.1977 8.92806 10.2112 9.00448C10.2248 9.0809 10.2546 9.15352 10.2987 9.2174C10.3428 9.28129 10.4001 9.33497 10.4667 9.37479L11.4167 10.1331C11.5116 10.2082 11.629 10.2492 11.75 10.2498C11.8319 10.2489 11.9125 10.2297 11.9861 10.1937C12.0596 10.1576 12.1241 10.1056 12.175 10.0415C12.2196 9.98601 12.2528 9.92217 12.2723 9.85373C12.2919 9.78529 12.2976 9.71363 12.2891 9.64296C12.2805 9.57228 12.2579 9.50403 12.2226 9.44223C12.1873 9.38043 12.1399 9.32633 12.0833 9.28312L11.1417 8.54145Z" fill="#6951FF"/>
</svg>
