<svg width="24" height="24" viewBox="0 0 24 24" fill="none" xmlns="http://www.w3.org/2000/svg">
<g clip-path="url(#clip0_2_825)">
<path d="M16.42 14.31L17.79 12.99C17.9513 12.8366 18.0797 12.652 18.1674 12.4475C18.2551 12.2429 18.3002 12.0226 18.3 11.8V8.41C17.993 8.46567 17.682 8.49577 17.37 8.5C17.24 8.5 17.12 8.5 17 8.5V11.84C16.9976 11.9345 16.9581 12.0243 16.89 12.09L15.04 13.88C14.9768 13.9398 14.9264 14.0119 14.8919 14.0919C14.8575 14.1718 14.8398 14.2579 14.8398 14.345C14.8398 14.4321 14.8575 14.5182 14.8919 14.5981C14.9264 14.6781 14.9768 14.7502 15.04 14.81L17.12 16.81C17.1425 16.8301 17.1603 16.8548 17.1724 16.8824C17.1845 16.91 17.1905 16.9399 17.19 16.97C17.1899 17 17.1836 17.0297 17.1715 17.0573C17.1595 17.0848 17.142 17.1095 17.12 17.13L14.56 19.63C14.5099 19.6771 14.4438 19.7033 14.375 19.7033C14.3062 19.7033 14.2401 19.6771 14.19 19.63L12.19 17.63L8.81 14.34L6.75 12.34C6.7219 12.3018 6.68818 12.2681 6.64999 12.24C6.49172 12.1169 6.37909 11.9444 6.32999 11.75V4.22C6.32999 4.17404 6.33904 4.12852 6.35663 4.08606C6.37422 4.0436 6.39999 4.00502 6.4325 3.97252C6.465 3.94002 6.50359 3.91423 6.54605 3.89664C6.58851 3.87905 6.63403 3.87 6.67999 3.87H12.37C12.37 3.74 12.37 3.63 12.37 3.5C12.3742 3.18804 12.4043 2.87698 12.46 2.57001H6.64999C6.21239 2.57001 5.79271 2.74383 5.48328 3.05327C5.17384 3.3627 5 3.78239 5 4.22V11.75C5.01905 12.0242 5.09254 12.2919 5.21616 12.5374C5.33977 12.783 5.51105 13.0014 5.72 13.18L7.10001 14.53L5.44998 16.1C5.30597 16.2346 5.19091 16.3971 5.11182 16.5776C5.03273 16.7581 4.99128 16.9529 4.98999 17.15C4.99166 17.3485 5.03325 17.5446 5.11227 17.7267C5.1913 17.9088 5.30614 18.0732 5.44998 18.21L7.89999 20.54C8.18602 20.8113 8.56574 20.9618 8.95999 20.96C9.35463 20.9639 9.73512 20.8131 10.02 20.54L11.66 18.98L13.24 20.52C13.5343 20.8029 13.9267 20.961 14.335 20.961C14.7433 20.961 15.1357 20.8029 15.43 20.52L17.99 18.02C18.1366 17.879 18.2529 17.7096 18.332 17.5223C18.4111 17.3349 18.4512 17.1334 18.45 16.93C18.4518 16.7265 18.4119 16.5249 18.3328 16.3374C18.2537 16.1499 18.137 15.9806 17.99 15.84L16.42 14.31ZM9.16998 19.64C9.12436 19.6801 9.06573 19.7022 9.005 19.7022C8.94428 19.7022 8.88562 19.6801 8.84 19.64L6.37 17.31C6.35137 17.296 6.33625 17.2779 6.32584 17.2571C6.31542 17.2363 6.31 17.2133 6.31 17.19C6.31077 17.1683 6.31658 17.147 6.327 17.1279C6.33741 17.1088 6.35214 17.0924 6.37 17.08L8.07001 15.5L10.77 18.14L9.16998 19.64Z" fill="#4E4E4E"/>
<path d="M9.91013 9.21999L8.77011 10.12C8.63527 10.2264 8.54802 10.3818 8.5274 10.5523C8.50679 10.7228 8.55451 10.8945 8.66013 11.03C8.72116 11.107 8.79861 11.1694 8.88684 11.2127C8.97507 11.2559 9.07185 11.2789 9.1701 11.28C9.31814 11.2779 9.46168 11.2288 9.58011 11.14L10.7101 10.23C10.7758 10.1775 10.8304 10.1125 10.871 10.0389C10.9116 9.9652 10.9372 9.88427 10.9465 9.8007C10.9558 9.71713 10.9485 9.63255 10.9251 9.55178C10.9017 9.47102 10.8626 9.39566 10.8101 9.32999C10.7576 9.26433 10.6926 9.20967 10.619 9.16911C10.5453 9.12855 10.4644 9.10288 10.3808 9.09359C10.2973 9.0843 10.2127 9.09158 10.1319 9.11498C10.0511 9.13839 9.97579 9.17746 9.91013 9.22999V9.21999Z" fill="#4E4E4E"/>
<path d="M9.57989 6.17999C9.51655 6.11171 9.43927 6.05785 9.35329 6.02203C9.26732 5.98622 9.17465 5.9693 9.08157 5.97243C8.98848 5.97555 8.89716 5.99863 8.81377 6.04013C8.73039 6.08163 8.65688 6.14056 8.59826 6.21294C8.53964 6.28531 8.49727 6.36943 8.47399 6.45961C8.45072 6.54979 8.4471 6.64394 8.46337 6.73564C8.47965 6.82735 8.51543 6.91448 8.56832 6.99115C8.62121 7.06782 8.68994 7.13221 8.76989 7.17999L9.94988 8.11999C10.0661 8.21291 10.2111 8.26241 10.3599 8.25999C10.4575 8.26083 10.554 8.2397 10.6423 8.19815C10.7306 8.1566 10.8084 8.09572 10.8699 8.02C10.9761 7.88294 11.0241 7.70961 11.0035 7.53746C10.9829 7.36531 10.8954 7.20817 10.7599 7.10001L9.57989 6.17999Z" fill="#4E4E4E"/>
<path d="M13.37 9.22C13.3066 9.15172 13.2293 9.09784 13.1434 9.06203C13.0574 9.02621 12.9647 9.0093 12.8716 9.01242C12.7785 9.01554 12.6872 9.03863 12.6038 9.08012C12.5205 9.12162 12.447 9.18055 12.3883 9.25293C12.3297 9.3253 12.2873 9.40943 12.264 9.49962C12.2408 9.5898 12.2371 9.68393 12.2534 9.77563C12.2697 9.86734 12.3055 9.95448 12.3584 10.0311C12.4113 10.1078 12.48 10.1722 12.56 10.22L13.6999 11.13C13.8139 11.22 13.9547 11.2693 14.1 11.27C14.1982 11.2689 14.295 11.2459 14.3832 11.2027C14.4715 11.1594 14.5489 11.097 14.6099 11.02C14.6635 10.9535 14.7033 10.8769 14.7268 10.7947C14.7503 10.7126 14.7571 10.6266 14.7468 10.5418C14.7366 10.457 14.7095 10.3751 14.6671 10.3009C14.6247 10.2268 14.5679 10.1619 14.5 10.11L13.37 9.22Z" fill="#4E4E4E"/>
<path d="M13.37 6.5L12.54 7.14999C12.4045 7.25816 12.317 7.4153 12.2964 7.58745C12.2758 7.7596 12.3238 7.93295 12.43 8.07001C12.4915 8.14573 12.5693 8.20661 12.6576 8.24815C12.7459 8.2897 12.8424 8.31084 12.94 8.31C13.0891 8.31415 13.2346 8.26445 13.35 8.17L14.28 7.42999C13.9375 7.16095 13.6315 6.84831 13.37 6.5Z" fill="#4E4E4E"/>
<path d="M17.3701 7C19.3031 7 20.8701 5.433 20.8701 3.5C20.8701 1.567 19.3031 0 17.3701 0C15.4371 0 13.8701 1.567 13.8701 3.5C13.8701 5.433 15.4371 7 17.3701 7Z" fill="#F37462"/>
</g>
<defs>
<clipPath id="clip0_2_825">
<rect width="15.87" height="21" fill="white" transform="translate(5)"/>
</clipPath>
</defs>
</svg>

