<svg width="32" height="32" viewBox="0 0 32 32" fill="none" xmlns="http://www.w3.org/2000/svg">
<path d="M24.8714 23.0534C26.4689 21.0442 27.337 18.5521 27.3337 15.9851C27.3303 13.4182 26.4556 10.9284 24.8527 8.9234C23.2499 6.91837 21.0138 5.51683 18.5106 4.94826C16.0074 4.37969 13.3853 4.67775 11.0736 5.79364C8.76188 6.90953 6.89745 8.77713 5.7855 11.0908C4.67355 13.4044 4.37997 16.027 4.9528 18.5292C5.52563 21.0314 6.93095 23.2651 8.9387 24.8645C10.9465 26.464 13.4377 27.3344 16.0047 27.3334H24.6714C24.9392 27.3392 25.2038 27.2735 25.4378 27.143C25.6718 27.0125 25.8668 26.822 26.0026 26.591C26.1384 26.3601 26.2103 26.0971 26.2106 25.8292C26.211 25.5613 26.1399 25.2981 26.0047 25.0668L24.8714 23.0534Z" fill="#6951FF"/>
</svg>
