<svg width="34" height="33" viewBox="0 0 34 33" fill="none" xmlns="http://www.w3.org/2000/svg">
<path d="M17.2693 0C14.0059 0 10.8158 0.967729 8.10239 2.78077C5.38898 4.59382 3.27412 7.17074 2.02527 10.1857C0.776428 13.2007 0.449684 16.5183 1.08634 19.719C1.723 22.9197 3.29447 25.8597 5.60203 28.1673C7.9096 30.4748 10.8496 32.0463 14.0503 32.6829C17.251 33.3196 20.5686 32.9929 23.5836 31.744C26.5985 30.4952 29.1755 28.3803 30.9885 25.6669C32.8016 22.9535 33.7693 19.7634 33.7693 16.5C33.7693 12.1239 32.0309 7.92711 28.9365 4.83276C25.8422 1.7384 21.6454 0 17.2693 0ZM21.2659 25.0983H11.2559C10.8928 25.0936 10.5458 24.9472 10.2889 24.6904C10.0321 24.4335 9.8857 24.0865 9.88095 23.7233V9.05667C9.88095 8.692 10.0258 8.34226 10.2837 8.08439C10.5415 7.82653 10.8913 7.68167 11.2559 7.68167H19.1026C20.0066 7.67702 20.8951 7.91637 21.6744 8.37455C22.4537 8.83272 23.095 9.49273 23.5305 10.2849C23.966 11.0771 24.1796 11.9721 24.1489 12.8756C24.1182 13.7791 23.8443 14.6576 23.356 15.4183C24.257 15.815 25.0239 16.464 25.564 17.2872C26.1041 18.1103 26.3942 19.0722 26.3993 20.0567C26.3993 20.7219 26.2677 21.3804 26.012 21.9945C25.7564 22.6086 25.3817 23.1661 24.9097 23.6347C24.4376 24.1034 23.8775 24.474 23.2616 24.7252C22.6457 24.9764 21.9861 25.1032 21.3209 25.0983H21.2659Z" fill="#E1E1E1"/>
</svg>
