<svg width="24" height="24" viewBox="0 0 24 24" fill="none" xmlns="http://www.w3.org/2000/svg">
<path d="M12 0C9.62662 0 7.30656 0.703803 5.33317 2.02238C3.35978 3.34096 1.8217 5.21508 0.913446 7.4078C0.00519371 9.60051 -0.232439 12.0133 0.230584 14.3411C0.693607 16.6688 1.83649 18.807 3.51472 20.4853C5.19295 22.1635 7.33116 23.3064 9.65893 23.7694C11.9867 24.2324 14.3995 23.9948 16.5922 23.0866C18.7849 22.1783 20.659 20.6402 21.9776 18.6668C23.2962 16.6934 24 14.3734 24 12C24 8.8174 22.7357 5.76517 20.4853 3.51473C18.2348 1.26429 15.1826 0 12 0ZM14.9067 18.2533H7.62666C7.36252 18.2499 7.11017 18.1434 6.92338 17.9566C6.73658 17.7698 6.63012 17.5175 6.62666 17.2533V6.58667C6.62666 6.32145 6.73201 6.0671 6.91955 5.87956C7.10709 5.69202 7.36145 5.58667 7.62666 5.58667H13.3333C13.9908 5.58328 14.637 5.75736 15.2037 6.09058C15.7705 6.42379 16.2368 6.9038 16.5536 7.47994C16.8703 8.05608 17.0257 8.70701 17.0034 9.3641C16.981 10.0212 16.7818 10.66 16.4267 11.2133C17.082 11.5018 17.6397 11.9738 18.0325 12.5725C18.4253 13.1711 18.6363 13.8707 18.64 14.5867C18.64 15.0704 18.5443 15.5494 18.3584 15.996C18.1724 16.4426 17.9 16.8481 17.5566 17.1889C17.2133 17.5297 16.806 17.7992 16.358 17.9819C15.9101 18.1646 15.4304 18.2569 14.9467 18.2533H14.9067Z" fill="#A0A0A0"/>
</svg>
