<svg width="22" height="22" viewBox="0 0 22 22" fill="none" xmlns="http://www.w3.org/2000/svg">
<path d="M16.2933 2.13336L19.3867 5.22669L5.51997 19.0934L2.11999 19.4134L2.42665 16L16.2933 2.13336V2.13336ZM16.2933 0.3467C15.8772 0.349797 15.4793 0.51759 15.1866 0.813365L1.15999 14.8267C0.894472 15.0845 0.73309 15.4309 0.706637 15.8L0.333305 19.8C0.322355 19.9712 0.346672 20.1429 0.404737 20.3043C0.462801 20.4657 0.553378 20.6135 0.67087 20.7385C0.788363 20.8634 0.930259 20.963 1.08778 21.0309C1.2453 21.0988 1.4151 21.1337 1.58664 21.1334H1.70664L5.70664 20.76C6.07639 20.7361 6.42373 20.5743 6.67999 20.3067L20.7066 6.29337C20.853 6.14724 20.9691 5.9737 21.0483 5.78266C21.1275 5.59163 21.1683 5.38684 21.1683 5.18003C21.1683 4.97323 21.1275 4.76845 21.0483 4.57741C20.9691 4.38638 20.853 4.21283 20.7066 4.0667L17.3733 0.746694C17.0806 0.450919 16.6827 0.283126 16.2667 0.280029L16.2933 0.3467Z" fill="white"/>
</svg>
