<svg width="24" height="24" viewBox="0 0 24 24" fill="none" xmlns="http://www.w3.org/2000/svg">
<path d="M15.97 5.34999L18.29 7.66999L7.88996 18.07L5.33998 18.31L5.56997 15.75L15.97 5.34999ZM15.97 4.00999C15.6579 4.01232 15.3595 4.13816 15.14 4.35999L4.61997 14.87C4.42084 15.0633 4.2998 15.3232 4.27996 15.6L3.99996 18.6C3.99175 18.7284 4.00999 18.8571 4.05354 18.9782C4.09709 19.0992 4.16502 19.2101 4.25314 19.3038C4.34126 19.3976 4.44768 19.4722 4.56582 19.5232C4.68396 19.5741 4.81131 19.6003 4.93997 19.6H5.02996L8.02996 19.32C8.30728 19.302 8.56778 19.1807 8.75997 18.98L19.28 8.46999C19.3897 8.3604 19.4768 8.23024 19.5362 8.08697C19.5956 7.94369 19.6262 7.7901 19.6262 7.63499C19.6262 7.47989 19.5956 7.32631 19.5362 7.18303C19.4768 7.03975 19.3897 6.90959 19.28 6.8L16.78 4.30999C16.5605 4.08816 16.262 3.96231 15.95 3.95999L15.97 4.00999Z" fill="#4E4E4E"/>
</svg>

