<svg width="20" height="20" viewBox="0 0 20 20" fill="none" xmlns="http://www.w3.org/2000/svg">
<path d="M13.875 3.33337H5.54168C5.17701 3.33337 4.82728 3.47824 4.56942 3.7361C4.31155 3.99397 4.16669 4.3437 4.16669 4.70837V15.4834C4.16848 15.6651 4.22147 15.8427 4.31961 15.9957C4.41774 16.1487 4.55702 16.2709 4.72147 16.3484C4.88592 16.4258 5.06887 16.4553 5.24932 16.4335C5.42978 16.4117 5.60042 16.3394 5.74167 16.225L9.70835 12.8917L13.675 16.225C13.8508 16.3637 14.0678 16.4399 14.2917 16.4417C14.4331 16.4433 14.5729 16.412 14.7 16.35C14.8606 16.2767 14.9973 16.1596 15.0946 16.0123C15.1918 15.8649 15.2457 15.6932 15.25 15.5167V4.70837C15.25 4.3437 15.1051 3.99397 14.8473 3.7361C14.5894 3.47824 14.2397 3.33337 13.875 3.33337Z" fill="#5038E3"/>
</svg>
