<svg width="20" height="20" viewBox="0 0 20 20" fill="none" xmlns="http://www.w3.org/2000/svg">
<path d="M5.12499 16.4417C4.9836 16.4433 4.84378 16.412 4.71666 16.35C4.55608 16.2767 4.41937 16.1596 4.32212 16.0123C4.22487 15.8649 4.171 15.6932 4.16666 15.5167V4.70837C4.16666 4.3437 4.31152 3.99395 4.56939 3.73609C4.82725 3.47823 5.17699 3.33337 5.54166 3.33337H13.875C14.0556 3.33337 14.2344 3.36894 14.4012 3.43804C14.568 3.50714 14.7196 3.60841 14.8473 3.73609C14.9749 3.86377 15.0762 4.01536 15.1453 4.18218C15.2144 4.349 15.25 4.5278 15.25 4.70837V15.4834C15.2482 15.6651 15.1952 15.8427 15.0971 15.9957C14.9989 16.1487 14.8596 16.2709 14.6952 16.3484C14.5308 16.4258 14.3478 16.4553 14.1673 16.4335C13.9869 16.4117 13.8162 16.3394 13.675 16.225L9.70832 12.8917L5.74166 16.225C5.56649 16.3649 5.34913 16.4412 5.12499 16.4417ZM5.54166 4.4167C5.4643 4.4167 5.39011 4.44744 5.33542 4.50213C5.28072 4.55683 5.24999 4.63101 5.24999 4.70837V15.2167L9.70832 11.5L14.1667 15.2167V4.70837C14.1667 4.63101 14.1359 4.55683 14.0812 4.50213C14.0265 4.44744 13.9523 4.4167 13.875 4.4167H5.54166Z" fill="#C5C5C5"/>
</svg>
