<svg width="20" height="20" viewBox="0 0 20 20" fill="none" xmlns="http://www.w3.org/2000/svg">
<path d="M16.2582 4.60162C15.6091 4.06391 14.7929 3.76924 13.9499 3.76829C13.4229 3.76873 12.9012 3.87354 12.4149 4.07664C11.9286 4.27974 11.4874 4.57712 11.1166 4.95163L10.0666 6.02664L8.89159 4.85164C8.5212 4.48033 8.07705 4.19084 7.58782 4.00188C7.09859 3.81291 6.57516 3.72867 6.05134 3.75458C5.52752 3.7805 5.01497 3.91599 4.54679 4.15233C4.0786 4.38866 3.66518 4.72057 3.33325 5.12663C2.75144 5.87878 2.46718 6.81898 2.53482 7.76749C2.60247 8.716 3.01726 9.60632 3.69992 10.2683L4.76659 11.335L9.47492 16.0433C9.55239 16.1214 9.64455 16.1834 9.7461 16.2257C9.84765 16.268 9.95658 16.2898 10.0666 16.2898C10.1766 16.2898 10.2855 16.268 10.3871 16.2257C10.4886 16.1834 10.5808 16.1214 10.6583 16.0433L15.3666 11.335L16.5499 10.1516C16.9189 9.78022 17.206 9.33569 17.3927 8.84662C17.5795 8.35755 17.6618 7.83479 17.6343 7.31199C17.6069 6.78919 17.4702 6.27794 17.2332 5.81114C16.9962 5.34434 16.6641 4.93231 16.2582 4.60162Z" fill="#F37462"/>
</svg>
