<svg width="18" height="18" viewBox="0 0 18 18" fill="none" xmlns="http://www.w3.org/2000/svg">
<path d="M14.6324 4.1412C14.0501 3.65389 13.3142 3.38823 12.5549 3.3912C11.5987 3.39331 10.682 3.77345 10.0049 4.4487L9.05991 5.42371L8.00241 4.3662C7.669 4.03265 7.26951 3.7725 6.82961 3.60247C6.38971 3.43244 5.91911 3.35629 5.44804 3.37889C4.97696 3.40149 4.51582 3.52235 4.09421 3.73371C3.67261 3.94507 3.29986 4.24226 2.99991 4.6062C2.47576 5.28433 2.21967 6.13174 2.28054 6.98667C2.34141 7.8416 2.71497 8.64417 3.32991 9.2412L4.28991 10.1937L8.52741 14.4387C8.59713 14.509 8.68009 14.5648 8.77148 14.6029C8.86287 14.641 8.9609 14.6606 9.05991 14.6606C9.15892 14.6606 9.25695 14.641 9.34834 14.6029C9.43974 14.5648 9.52269 14.509 9.59241 14.4387L13.8299 10.1937L14.8949 9.1362C15.227 8.80194 15.4854 8.40184 15.6535 7.96167C15.8215 7.52151 15.8956 7.05103 15.8709 6.58051C15.8462 6.10999 15.7232 5.64987 15.5099 5.22975C15.2966 4.80963 14.9977 4.43882 14.6324 4.1412ZM14.1899 8.4462L13.1324 9.5037L9.05991 13.5912L4.97991 9.5037L4.01991 8.5512C3.57477 8.12687 3.30183 7.55322 3.25339 6.94014C3.20495 6.32706 3.38442 5.71767 3.75741 5.2287C3.97022 4.96992 4.2347 4.75842 4.53392 4.60771C4.83315 4.457 5.16054 4.3704 5.49515 4.35345C5.82976 4.33651 6.16423 4.38959 6.47715 4.50931C6.79007 4.62903 7.07455 4.81275 7.31241 5.04871L8.36991 6.1137C8.55479 6.29377 8.80185 6.39581 9.05991 6.3987C9.18801 6.39885 9.31488 6.37376 9.43327 6.32486C9.55166 6.27596 9.65926 6.20421 9.74991 6.1137L10.7099 5.1537C11.2071 4.66877 11.8754 4.39931 12.5699 4.4037C13.0998 4.39704 13.6151 4.57765 14.0249 4.9137C14.2847 5.12583 14.4971 5.39006 14.6485 5.68933C14.7999 5.98861 14.8868 6.3163 14.9038 6.65126C14.9208 6.98621 14.8673 7.321 14.747 7.63404C14.6266 7.94708 14.4419 8.23141 14.2049 8.4687L14.1899 8.4462Z" fill="#C5C5C5"/>
</svg>


