<svg width="20" height="20" viewBox="0 0 20 20" fill="none" xmlns="http://www.w3.org/2000/svg">
<path d="M16.2583 4.60133C15.6113 4.05988 14.7936 3.7647 13.95 3.768C12.8874 3.77034 11.869 4.19272 11.1166 4.943L10.0666 6.02634L8.89163 4.85134C8.52117 4.48072 8.0773 4.19167 7.58852 4.00274C7.09974 3.81382 6.57685 3.72921 6.05343 3.75432C5.53001 3.77943 5.01763 3.91372 4.54918 4.14857C4.08074 4.38341 3.66657 4.71362 3.33329 5.118C2.7509 5.87148 2.46636 6.81305 2.53399 7.76297C2.60162 8.71289 3.01669 9.60463 3.69996 10.268L4.76663 11.3263L9.47496 16.043C9.55243 16.1211 9.6446 16.1831 9.74615 16.2254C9.8477 16.2677 9.95662 16.2895 10.0666 16.2895C10.1766 16.2895 10.2856 16.2677 10.3871 16.2254C10.4887 16.1831 10.5808 16.1211 10.6583 16.043L15.3666 11.3263L16.55 10.1513C16.9189 9.77993 17.206 9.33537 17.3928 8.8463C17.5796 8.35723 17.6618 7.83447 17.6344 7.31168C17.6069 6.78888 17.4703 6.27764 17.2333 5.81083C16.9963 5.34403 16.6641 4.93202 16.2583 4.60133ZM15.7666 9.38467L14.5916 10.5597L10.0666 15.1013L5.53329 10.5597L4.46663 9.50134C3.97202 9.02986 3.66876 8.39246 3.61494 7.71127C3.56112 7.03007 3.76053 6.35296 4.17496 5.80966C4.41141 5.52214 4.70528 5.28713 5.03775 5.11967C5.37023 4.95222 5.73399 4.856 6.10578 4.83717C6.47757 4.81835 6.8492 4.87733 7.19689 5.01035C7.54458 5.14336 7.86067 5.3475 8.12496 5.60967L9.29996 6.793C9.50538 6.99308 9.77989 7.10646 10.0666 7.10966C10.209 7.10983 10.3499 7.08196 10.4815 7.02762C10.613 6.97329 10.7326 6.89356 10.8333 6.793L11.9 5.72634C12.4524 5.18753 13.1949 4.88812 13.9666 4.89301C14.5554 4.8856 15.128 5.08628 15.5833 5.45967C15.8719 5.69537 16.108 5.98895 16.2762 6.32148C16.4444 6.65401 16.541 7.01811 16.5598 7.39028C16.5787 7.76246 16.5193 8.13445 16.3856 8.48227C16.2518 8.83009 16.0466 9.14602 15.7833 9.40967L15.7666 9.38467Z" fill="#C5C5C5"/>
</svg>

