<svg width="24" height="24" viewBox="0 0 24 24" fill="none" xmlns="http://www.w3.org/2000/svg">
<path d="M12.1001 12C14.3092 12 16.1001 10.2091 16.1001 8C16.1001 5.79086 14.3092 4 12.1001 4C9.89096 4 8.1001 5.79086 8.1001 8C8.1001 10.2091 9.89096 12 12.1001 12Z" fill="#4E4E4E"/>
<path d="M20.1899 19.26C19.9488 17.2841 18.9929 15.4647 17.5026 14.1452C16.0122 12.8256 14.0905 12.0971 12.0999 12.0971C10.1094 12.0971 8.18761 12.8256 6.69726 14.1452C5.20692 15.4647 4.25103 17.2841 4.00993 19.26C3.98592 19.4662 4.00556 19.6752 4.06758 19.8733C4.1296 20.0714 4.23262 20.2543 4.36993 20.41C4.50484 20.5637 4.67093 20.6869 4.85715 20.7713C5.04336 20.8558 5.24545 20.8997 5.44993 20.9H18.7499C18.9544 20.8997 19.1565 20.8558 19.3427 20.7713C19.5289 20.6869 19.695 20.5637 19.8299 20.41C19.9672 20.2543 20.0703 20.0714 20.1323 19.8733C20.1943 19.6752 20.2139 19.4662 20.1899 19.26Z" fill="#4E4E4E"/>
</svg>
