<svg width="20" height="21" viewBox="0 0 20 21" fill="none" xmlns="http://www.w3.org/2000/svg">
<path d="M3.71943 7.32259C3.71841 7.39389 3.73192 7.46463 3.75914 7.53054C3.78637 7.59644 3.82673 7.65612 3.87777 7.70591L9.76943 13.5976C9.87209 13.6974 10.0096 13.7532 10.1528 13.7532C10.2959 13.7532 10.4334 13.6974 10.5361 13.5976L16.4278 7.70591C16.5294 7.60425 16.5865 7.46636 16.5865 7.32259C16.5865 7.17881 16.5294 7.0409 16.4278 6.93923C16.3261 6.83757 16.1882 6.78047 16.0444 6.78047C15.9007 6.78047 15.7628 6.83757 15.6611 6.93923L10.1528 12.4476L4.64443 6.93923C4.54178 6.83946 4.40425 6.78365 4.2611 6.78365C4.11794 6.78365 3.98043 6.83946 3.87777 6.93923C3.82673 6.98903 3.78637 7.0487 3.75914 7.11461C3.73192 7.18051 3.71841 7.25129 3.71943 7.32259Z" fill="#767676"/>
</svg>
