<svg width="24" height="24" viewBox="0 0 24 24" fill="none" xmlns="http://www.w3.org/2000/svg">
<path d="M10.6 16.8C10.8122 16.8 11.0157 16.7157 11.1657 16.5657C11.3157 16.4157 11.4 16.2122 11.4 16V11.2C11.4 10.9878 11.3157 10.7843 11.1657 10.6343C11.0157 10.4843 10.8122 10.4 10.6 10.4C10.3878 10.4 10.1843 10.4843 10.0343 10.6343C9.88428 10.7843 9.8 10.9878 9.8 11.2V16C9.8 16.2122 9.88428 16.4157 10.0343 16.5657C10.1843 16.7157 10.3878 16.8 10.6 16.8ZM18.6 7.2H15.4V6.4C15.4 5.76348 15.1471 5.15303 14.6971 4.70294C14.247 4.25286 13.6365 4 13 4H11.4C10.7635 4 10.153 4.25286 9.70294 4.70294C9.25286 5.15303 9 5.76348 9 6.4V7.2H5.8C5.58783 7.2 5.38434 7.28429 5.23431 7.43431C5.08429 7.58434 5 7.78783 5 8C5 8.21217 5.08429 8.41566 5.23431 8.56569C5.38434 8.71571 5.58783 8.8 5.8 8.8H6.6V17.6C6.6 18.2365 6.85286 18.847 7.30294 19.2971C7.75303 19.7471 8.36348 20 9 20H15.4C16.0365 20 16.647 19.7471 17.0971 19.2971C17.5471 18.847 17.8 18.2365 17.8 17.6V8.8H18.6C18.8122 8.8 19.0157 8.71571 19.1657 8.56569C19.3157 8.41566 19.4 8.21217 19.4 8C19.4 7.78783 19.3157 7.58434 19.1657 7.43431C19.0157 7.28429 18.8122 7.2 18.6 7.2ZM10.6 6.4C10.6 6.18783 10.6843 5.98434 10.8343 5.83431C10.9843 5.68429 11.1878 5.6 11.4 5.6H13C13.2122 5.6 13.4157 5.68429 13.5657 5.83431C13.7157 5.98434 13.8 6.18783 13.8 6.4V7.2H10.6V6.4ZM16.2 17.6C16.2 17.8122 16.1157 18.0157 15.9657 18.1657C15.8157 18.3157 15.6122 18.4 15.4 18.4H9C8.78783 18.4 8.58434 18.3157 8.43431 18.1657C8.28429 18.0157 8.2 17.8122 8.2 17.6V8.8H16.2V17.6ZM13.8 16.8C14.0122 16.8 14.2157 16.7157 14.3657 16.5657C14.5157 16.4157 14.6 16.2122 14.6 16V11.2C14.6 10.9878 14.5157 10.7843 14.3657 10.6343C14.2157 10.4843 14.0122 10.4 13.8 10.4C13.5878 10.4 13.3843 10.4843 13.2343 10.6343C13.0843 10.7843 13 10.9878 13 11.2V16C13 16.2122 13.0843 16.4157 13.2343 16.5657C13.3843 16.7157 13.5878 16.8 13.8 16.8Z" fill="#4E4E4E"/>
</svg>
