<svg width="24" height="24" viewBox="0 0 24 24" fill="none" xmlns="http://www.w3.org/2000/svg">
<circle cx="12" cy="12" r="8.35" stroke="#A0A0A0" stroke-width="1.3"/>
<mask id="path-2-inside-1_66_1085" fill="white">
<path d="M16.25 15.0405V8.4595C16.25 8.11374 15.9075 7.87234 15.5818 7.98863L9.25 10.25V13.25L15.5818 15.5114C15.9075 15.6277 16.25 15.3863 16.25 15.0405Z"/>
</mask>
<path d="M15.5818 15.5114L16.0191 14.2871L16.0191 14.2871L15.5818 15.5114ZM9.25 13.25H7.95V14.1661L8.81276 14.4743L9.25 13.25ZM9.25 10.25L8.81276 9.02574L7.95 9.33387V10.25H9.25ZM15.5818 7.98863L16.0191 9.2129L15.5818 7.98863ZM14.95 8.4595V15.0405H17.55V8.4595H14.95ZM16.0191 14.2871L9.68724 12.0257L8.81276 14.4743L15.1446 16.7356L16.0191 14.2871ZM10.55 13.25V10.25H7.95V13.25H10.55ZM9.68724 11.4743L16.0191 9.2129L15.1446 6.76437L8.81276 9.02574L9.68724 11.4743ZM14.95 15.0405C14.95 14.4873 15.4981 14.101 16.0191 14.2871L15.1446 16.7356C16.3168 17.1543 17.55 16.2853 17.55 15.0405H14.95ZM17.55 8.4595C17.55 7.21474 16.3168 6.34571 15.1446 6.76437L16.0191 9.2129C15.4981 9.39896 14.95 9.01273 14.95 8.4595H17.55Z" fill="#A0A0A0" mask="url(#path-2-inside-1_66_1085)"/>
<path d="M9.25 10.25C9.05302 10.25 8.85796 10.2888 8.67597 10.3642C8.49399 10.4396 8.32863 10.5501 8.18934 10.6893C8.05005 10.8286 7.93956 10.994 7.86418 11.176C7.7888 11.358 7.75 11.553 7.75 11.75C7.75 11.947 7.7888 12.142 7.86418 12.324C7.93956 12.506 8.05005 12.6714 8.18934 12.8107C8.32863 12.9499 8.49399 13.0604 8.67597 13.1358C8.85796 13.2112 9.05302 13.25 9.25 13.25L9.25 11.75V10.25Z" fill="#A0A0A0"/>
<path d="M10.9 13.25C10.9 12.891 10.609 12.6 10.25 12.6C9.89101 12.6 9.6 12.891 9.6 13.25H10.9ZM9.6 16.25C9.6 16.609 9.89101 16.9 10.25 16.9C10.609 16.9 10.9 16.609 10.9 16.25H9.6ZM9.6 13.25V16.25H10.9V13.25H9.6Z" fill="#A0A0A0"/>
</svg>
