<svg width="24" height="24" viewBox="0 0 24 24" fill="none" xmlns="http://www.w3.org/2000/svg">
<path d="M11.9922 3C10.2448 3.00332 8.53612 3.51471 7.07422 4.47189C5.61232 5.42906 4.46032 6.7907 3.75854 8.39096C3.05675 9.99122 2.83547 11.761 3.12165 13.4848C3.40784 15.2086 4.18912 16.812 5.37036 18.0996C6.21401 19.0141 7.23793 19.7439 8.37761 20.2431C9.51728 20.7423 10.748 21 11.9922 21C13.2364 21 14.4671 20.7423 15.6068 20.2431C16.7465 19.7439 17.7704 19.0141 18.614 18.0996C19.7953 16.812 20.5766 15.2086 20.8627 13.4848C21.1489 11.761 20.9276 9.99122 20.2259 8.39096C19.5241 6.7907 18.3721 5.42906 16.9102 4.47189C15.4483 3.51471 13.7396 3.00332 11.9922 3V3ZM11.9922 19.2168C10.1259 19.2139 8.33344 18.4873 6.99203 17.1897C7.39929 16.1982 8.0921 15.3502 8.98242 14.7534C9.87273 14.1567 10.9204 13.838 11.9922 13.838C13.064 13.838 14.1117 14.1567 15.002 14.7534C15.8923 15.3502 16.5851 16.1982 16.9924 17.1897C15.651 18.4873 13.8585 19.2139 11.9922 19.2168ZM10.1903 10.2074C10.1903 9.85107 10.296 9.5027 10.494 9.20639C10.692 8.91007 10.9734 8.67912 11.3027 8.54275C11.6319 8.40637 11.9942 8.37068 12.3437 8.44021C12.6933 8.50973 13.0143 8.68135 13.2663 8.93334C13.5183 9.18534 13.6899 9.5064 13.7594 9.85592C13.829 10.2055 13.7933 10.5677 13.6569 10.897C13.5205 11.2262 13.2896 11.5077 12.9933 11.7056C12.6969 11.9036 12.3486 12.0093 11.9922 12.0093C11.5143 12.0093 11.056 11.8195 10.7181 11.4816C10.3802 11.1436 10.1903 10.6853 10.1903 10.2074ZM18.2176 15.613C17.4127 14.2362 16.1738 13.1652 14.695 12.5679C15.1537 12.0477 15.4526 11.4063 15.5558 10.7205C15.659 10.0347 15.5621 9.33365 15.2768 8.70154C14.9914 8.06943 14.5297 7.53309 13.9471 7.15687C13.3645 6.78064 12.6857 6.58052 11.9922 6.58052C11.2987 6.58052 10.6199 6.78064 10.0373 7.15687C9.45465 7.53309 8.99297 8.06943 8.70763 8.70154C8.42229 9.33365 8.3254 10.0347 8.42859 10.7205C8.53179 11.4063 8.83068 12.0477 9.28941 12.5679C7.81062 13.1652 6.57172 14.2362 5.76677 15.613C5.12525 14.5203 4.7863 13.2764 4.78475 12.0093C4.78475 10.0978 5.5441 8.26453 6.89576 6.91288C8.24742 5.56122 10.0807 4.80186 11.9922 4.80186C13.9037 4.80186 15.737 5.56122 17.0886 6.91288C18.4403 8.26453 19.1996 10.0978 19.1996 12.0093C19.1981 13.2764 18.8591 14.5203 18.2176 15.613V15.613Z" fill="#A0A0A0"/>
</svg>

