<svg width="24" height="24" viewBox="0 0 24 24" fill="none" xmlns="http://www.w3.org/2000/svg">
<path d="M12 3.65C16.3928 3.65 19.9934 7.0422 20.3251 11.35H3.67491C3.82748 9.36692 4.67237 7.57862 5.96938 6.22467C7.49012 4.63718 9.62923 3.65 12 3.65ZM3.67493 12.65H20.3251C19.9934 16.9578 16.3928 20.35 12 20.35C7.60715 20.35 4.0066 16.9578 3.67493 12.65Z" stroke="#A0A0A0" stroke-width="1.3"/>
<path d="M15.35 12C15.35 14.4161 14.9134 16.5722 14.2344 18.1C13.8946 18.8647 13.5067 19.4433 13.1089 19.8219C12.7144 20.1973 12.3408 20.35 12 20.35C11.6592 20.35 11.2856 20.1973 10.8911 19.8219C10.4933 19.4433 10.1054 18.8647 9.76555 18.1C9.08655 16.5722 8.65 14.4161 8.65 12C8.65 9.58389 9.08655 7.42778 9.76555 5.90003C10.1054 5.13534 10.4933 4.55674 10.8911 4.17812C11.2856 3.80269 11.6592 3.65 12 3.65C12.3408 3.65 12.7144 3.80269 13.1089 4.17812C13.5067 4.55674 13.8946 5.13534 14.2344 5.90003C14.9134 7.42778 15.35 9.58389 15.35 12Z" stroke="#A0A0A0" stroke-width="1.3"/>
<path d="M5.1377 7.00003C6.78855 8.83544 9.25022 9.5 11.9999 9.5C14.7496 9.5 17.2112 8.83544 18.8621 7.00003" stroke="#A0A0A0" stroke-width="1.3"/>
<path d="M18.7246 17C17.0738 15.1646 14.6121 14.5 11.8624 14.5C9.11273 14.5 6.65106 15.1646 5.00021 17" stroke="#A0A0A0" stroke-width="1.3"/>
</svg>





