<svg width="24" height="24" viewBox="0 0 24 24" fill="none" xmlns="http://www.w3.org/2000/svg">
<circle cx="12" cy="12" r="8.35" stroke="#5038E3" stroke-width="1.3"/>
<circle cx="9.65" cy="9.65" r="0.65" fill="#5038E3"/>
<circle cx="14.65" cy="9.65" r="0.65" fill="#5038E3"/>
<mask id="path-4-inside-1_59_994" fill="white">
<path d="M15.4162 14C15.4162 15 14.1254 17 11.9163 17C9.70714 17 8.41628 15 8.41626 14C8.41622 12.5 8.41624 12.5 11.9162 12.5C15.4162 12.5 15.4162 12.5 15.4162 14Z"/>
</mask>
<path d="M8.41626 14L9.71626 14V14L8.41626 14ZM14.1162 14C14.1162 13.9982 14.1081 14.1169 14.0053 14.3338C13.9098 14.5353 13.7593 14.7635 13.556 14.9756C13.1529 15.3964 12.6007 15.7 11.9163 15.7V18.3C13.441 18.3 14.6388 17.6036 15.4334 16.7744C16.1799 15.9953 16.7162 14.9398 16.7162 14H14.1162ZM11.9163 15.7C11.2318 15.7 10.6797 15.3964 10.2765 14.9756C10.0733 14.7635 9.92272 14.5353 9.82719 14.3338C9.72437 14.1169 9.71626 13.9982 9.71626 14L7.11626 14C7.11628 14.9398 7.65265 15.9953 8.39919 16.7744C9.19373 17.6036 10.3916 18.3 11.9163 18.3V15.7ZM9.71626 14C9.71625 13.8032 9.71656 13.6729 9.72161 13.5667C9.72672 13.4593 9.73468 13.4384 9.72933 13.459C9.72081 13.4919 9.68821 13.5929 9.59623 13.7024C9.50274 13.8137 9.40547 13.8654 9.36583 13.8824C9.34753 13.8902 9.46286 13.8454 9.95463 13.822C10.4084 13.8004 11.0275 13.8 11.9162 13.8L11.9162 11.2C11.055 11.2 10.3616 11.1996 9.83097 11.2249C9.33837 11.2484 8.79744 11.2973 8.34164 11.4926C8.08325 11.6034 7.82192 11.7723 7.60539 12.0301C7.39036 12.2861 7.27573 12.5628 7.21253 12.8066C7.10629 13.2164 7.11625 13.6963 7.11626 14L9.71626 14ZM11.9162 13.8C12.8049 13.8 13.4241 13.8004 13.8778 13.822C14.3696 13.8454 14.4849 13.8902 14.4667 13.8824C14.427 13.8654 14.3297 13.8137 14.2363 13.7024C14.1443 13.5929 14.1117 13.4919 14.1032 13.4591C14.0978 13.4384 14.1058 13.4593 14.1109 13.5667C14.1159 13.673 14.1162 13.8033 14.1162 14H16.7162C16.7162 13.6963 16.7262 13.2163 16.6199 12.8066C16.5567 12.5628 16.4421 12.286 16.2271 12.0301C16.0105 11.7723 15.7492 11.6034 15.4908 11.4926C15.035 11.2973 14.4941 11.2484 14.0015 11.2249C13.4709 11.1996 12.7775 11.2 11.9162 11.2L11.9162 13.8Z" fill="#5038E3" mask="url(#path-4-inside-1_59_994)"/>
</svg>
