<svg width="24" height="24" viewBox="0 0 24 24" fill="none" xmlns="http://www.w3.org/2000/svg">
<circle cx="12" cy="12" r="8.35" stroke="#A0A0A0" stroke-width="1.3"/>
<circle cx="9.65" cy="9.65" r="0.65" fill="#A0A0A0"/>
<circle cx="14.65" cy="9.65" r="0.65" fill="#A0A0A0"/>
<mask id="path-4-inside-1_53_1092" fill="white">
<path d="M15.4161 14C15.4161 15 14.1253 17 11.9162 17C9.70702 17 8.41616 15 8.41614 14C8.41609 12.5 8.41612 12.5 11.9161 12.5C15.4161 12.5 15.4161 12.5 15.4161 14Z"/>
</mask>
<path d="M8.41614 14L9.71614 14V14L8.41614 14ZM14.1161 14C14.1161 13.9982 14.108 14.1169 14.0052 14.3338C13.9097 14.5353 13.7591 14.7635 13.5559 14.9756C13.1527 15.3964 12.6006 15.7 11.9162 15.7V18.3C13.4409 18.3 14.6387 17.6036 15.4332 16.7744C16.1798 15.9952 16.7161 14.9398 16.7161 14H14.1161ZM11.9162 15.7C11.2317 15.7 10.6796 15.3964 10.2764 14.9756C10.0731 14.7635 9.92259 14.5353 9.82707 14.3338C9.72425 14.1169 9.71614 13.9982 9.71614 14L7.11614 14C7.11615 14.9398 7.65253 15.9953 8.39907 16.7744C9.19361 17.6036 10.3915 18.3 11.9162 18.3V15.7ZM9.71614 14C9.71613 13.8032 9.71643 13.6729 9.72149 13.5667C9.7266 13.4593 9.73456 13.4384 9.72921 13.459C9.72069 13.4919 9.68809 13.5928 9.5961 13.7024C9.50261 13.8137 9.40535 13.8654 9.36571 13.8824C9.34741 13.8902 9.46273 13.8454 9.95451 13.822C10.4083 13.8004 11.0274 13.8 11.9161 13.8L11.9161 11.2C11.0548 11.2 10.3615 11.1996 9.83085 11.2249C9.33824 11.2484 8.79732 11.2973 8.34152 11.4926C8.08313 11.6033 7.8218 11.7723 7.60526 12.0301C7.39024 12.286 7.27561 12.5628 7.2124 12.8066C7.10617 13.2164 7.11613 13.6963 7.11614 14L9.71614 14ZM11.9161 13.8C12.8048 13.8 13.4239 13.8004 13.8777 13.822C14.3695 13.8454 14.4848 13.8902 14.4665 13.8824C14.4269 13.8654 14.3296 13.8137 14.2361 13.7024C14.1442 13.5929 14.1116 13.4919 14.103 13.4591C14.0977 13.4384 14.1056 13.4593 14.1108 13.5667C14.1158 13.673 14.1161 13.8033 14.1161 14H16.7161C16.7161 13.6963 16.7261 13.2163 16.6198 12.8066C16.5566 12.5628 16.442 12.286 16.227 12.0301C16.0104 11.7723 15.7491 11.6033 15.4907 11.4926C15.0349 11.2973 14.494 11.2484 14.0014 11.2249C13.4708 11.1996 12.7774 11.2 11.9161 11.2L11.9161 13.8Z" fill="#A0A0A0" mask="url(#path-4-inside-1_53_1092)"/>
</svg>


