<svg width="24" height="24" viewBox="0 0 24 24" fill="none" xmlns="http://www.w3.org/2000/svg">
<path d="M18.1445 16.8855C17.9799 17.0925 17.9571 17.3785 18.0868 17.6089L18.9368 19.1189L18.9368 19.1189L18.9421 19.128C18.9852 19.2017 19.0078 19.2856 19.0077 19.371C19.0076 19.4563 18.9847 19.5401 18.9415 19.6137C18.8982 19.6872 18.8361 19.7479 18.7615 19.7895C18.687 19.8311 18.6027 19.852 18.5173 19.8502L18.5173 19.85H18.5033H12.0033H12.003C10.225 19.8507 8.49946 19.2478 7.10879 18.1399C5.71812 17.0321 4.74473 15.4849 4.34796 13.7518C3.95119 12.0186 4.15454 10.2021 4.92473 8.59957C5.69492 6.99705 6.98631 5.70345 8.58753 4.93054C10.1887 4.15762 12.0049 3.95117 13.7387 4.34499C15.4726 4.73881 17.0214 5.70958 18.1316 7.09836C19.2418 8.48714 19.8477 10.2116 19.85 11.9896C19.8523 13.7676 19.251 15.4938 18.1445 16.8855Z" stroke="#5038E3" stroke-width="1.3" stroke-linejoin="round"/>
<path fill-rule="evenodd" clip-rule="evenodd" d="M11.9997 9.9C12.4415 9.9 12.7997 9.54183 12.7997 9.1C12.7997 8.65817 12.4415 8.3 11.9997 8.3C11.5579 8.3 11.1997 8.65817 11.1997 9.1C11.1997 9.54183 11.5579 9.9 11.9997 9.9ZM11.9997 10.7615C11.5579 10.7615 11.1997 11.1197 11.1997 11.5615V14.7615C11.1997 15.2034 11.5579 15.5615 11.9997 15.5615C12.4415 15.5615 12.7997 15.2034 12.7997 14.7615V11.5615C12.7997 11.1197 12.4415 10.7615 11.9997 10.7615Z" fill="#5038E3"/>
</svg>
