<svg width="24" height="24" viewBox="0 0 24 24" fill="none" xmlns="http://www.w3.org/2000/svg">
<path d="M17.29 10C19.223 10 20.79 8.433 20.79 6.5C20.79 4.567 19.223 3 17.29 3C15.357 3 13.79 4.567 13.79 6.5C13.79 8.433 15.357 10 17.29 10Z" fill="#F37462"/>
<path d="M17.97 14.23V11.43C17.7485 11.4686 17.5247 11.492 17.3 11.5C17.08 11.5 16.88 11.5 16.67 11.44V15.5199H17.82C18.0454 15.5199 18.2616 15.6095 18.421 15.7689C18.5804 15.9283 18.67 16.1445 18.67 16.37C18.67 16.5954 18.5804 16.8116 18.421 16.971C18.2616 17.1304 18.0454 17.22 17.82 17.22H6.15C5.92456 17.22 5.70836 17.1304 5.54895 16.971C5.38955 16.8116 5.29999 16.5954 5.29999 16.37C5.29999 16.1445 5.38955 15.9283 5.54895 15.7689C5.70836 15.6095 5.92456 15.5199 6.15 15.5199H7.29999V10.2C7.30264 8.95783 7.79793 7.76747 8.67719 6.89008C9.55645 6.0127 10.7479 5.51995 11.99 5.51995C12.13 5.51995 12.26 5.51995 12.39 5.51995C12.482 5.07825 12.6334 4.65105 12.84 4.24996C11.9902 4.11797 11.1219 4.17236 10.2953 4.40939C9.46867 4.64641 8.70349 5.06039 8.0528 5.62261C7.4021 6.18484 6.88146 6.88186 6.52699 7.66535C6.17253 8.44884 5.9927 9.30004 5.99999 10.1599V14.1599C5.45396 14.2112 4.94816 14.4691 4.58606 14.881C4.22397 15.2929 4.03296 15.8276 4.05213 16.3757C4.07129 16.9238 4.29917 17.4438 4.68915 17.8294C5.07913 18.215 5.60173 18.437 6.15 18.45H8.90999C9.06109 19.1547 9.44928 19.7863 10.0098 20.2393C10.5703 20.6924 11.2693 20.9396 11.99 20.9396C12.7107 20.9396 13.4097 20.6924 13.9702 20.2393C14.5307 19.7863 14.9189 19.1547 15.07 18.45H17.82C18.3683 18.437 18.8908 18.215 19.2808 17.8294C19.6708 17.4438 19.8987 16.9238 19.9179 16.3757C19.937 15.8276 19.746 15.2929 19.3839 14.881C19.0218 14.4691 18.516 14.2112 17.97 14.1599V14.23ZM11.97 19.72C11.5941 19.7181 11.2277 19.6025 10.9189 19.3883C10.61 19.1741 10.3734 18.8713 10.24 18.5199H13.69C13.5608 18.8682 13.3293 19.1692 13.0259 19.3834C12.7225 19.5975 12.3614 19.7149 11.99 19.72H11.97Z" fill="#4E4E4E"/>
</svg>

