<svg width="20" height="20" viewBox="0 0 20 20" fill="none" xmlns="http://www.w3.org/2000/svg">
<path d="M16.6667 4.16663H3.33333C3.11232 4.16663 2.90037 4.25442 2.74409 4.4107C2.58781 4.56698 2.5 4.77895 2.5 4.99996V13.3333C2.5 13.5543 2.58781 13.7663 2.74409 13.9226C2.90037 14.0788 3.11232 14.1666 3.33333 14.1666H10.45L11.5833 16.175C11.656 16.3032 11.7614 16.4099 11.8888 16.4841C12.0161 16.5583 12.1609 16.5974 12.3083 16.5974C12.4557 16.5974 12.6005 16.5583 12.7279 16.4841C12.8553 16.4099 12.9607 16.3032 13.0333 16.175L14.1667 14.1666H16.6667C16.8877 14.1666 17.0996 14.0788 17.2559 13.9226C17.4122 13.7663 17.5 13.5543 17.5 13.3333V4.99996C17.5 4.77895 17.4122 4.56698 17.2559 4.4107C17.0996 4.25442 16.8877 4.16663 16.6667 4.16663ZM16.4167 13.0833H14.1667C13.9749 13.0827 13.7865 13.1333 13.6209 13.23C13.4553 13.3267 13.3186 13.466 13.225 13.6333L12.3083 15.25L11.3917 13.6333C11.2974 13.4665 11.1605 13.3278 10.9951 13.2312C10.8297 13.1345 10.6416 13.0835 10.45 13.0833H3.58332V5.24996H16.4167V13.0833Z" fill="#C5C5C5"/>
<path d="M6.66668 10C7.12691 10 7.50001 9.62694 7.50001 9.16671C7.50001 8.70647 7.12691 8.33337 6.66668 8.33337C6.20644 8.33337 5.83334 8.70647 5.83334 9.16671C5.83334 9.62694 6.20644 10 6.66668 10Z" fill="#C5C5C5"/>
<path d="M9.99999 10C10.4602 10 10.8333 9.62694 10.8333 9.16671C10.8333 8.70647 10.4602 8.33337 9.99999 8.33337C9.53975 8.33337 9.16666 8.70647 9.16666 9.16671C9.16666 9.62694 9.53975 10 9.99999 10Z" fill="#C5C5C5"/>
<path d="M13.3333 10C13.7936 10 14.1667 9.62694 14.1667 9.16671C14.1667 8.70647 13.7936 8.33337 13.3333 8.33337C12.8731 8.33337 12.5 8.70647 12.5 9.16671C12.5 9.62694 12.8731 10 13.3333 10Z" fill="#C5C5C5"/>
</svg>
