<svg width="24" height="24" viewBox="0 0 24 24" fill="none" xmlns="http://www.w3.org/2000/svg">
<path d="M18.6533 17.29C19.8514 15.7831 20.5025 13.914 20.5 11.9888C20.4975 10.0636 19.8414 8.19626 18.6393 6.69249C17.4371 5.18871 15.7601 4.13756 13.8827 3.71113C12.0053 3.28471 10.0388 3.50825 8.30496 4.34517C6.57117 5.18208 5.17284 6.58279 4.33888 8.31801C3.50492 10.0532 3.28473 12.0202 3.71435 13.8968C4.14398 15.7735 5.19797 17.4488 6.70378 18.6483C8.2096 19.8479 10.078 20.5008 12.0033 20.5H18.5033C18.7042 20.5044 18.9026 20.4551 19.0781 20.3572C19.2536 20.2593 19.3998 20.1164 19.5017 19.9432C19.6036 19.77 19.6574 19.5728 19.6577 19.3718C19.658 19.1709 19.6047 18.9735 19.5033 18.8L18.6533 17.29Z" fill="#4E4E4E"/>
</svg>

