<svg width="24" height="24" viewBox="0 0 24 24" fill="none" xmlns="http://www.w3.org/2000/svg">
<path d="M10.7222 17.4659C10.4092 17.4624 10.1013 17.3855 9.82343 17.2413C9.54553 17.0972 9.30538 16.8898 9.12226 16.6359L5.87226 12.0859C5.82234 12.0172 5.78659 11.9392 5.7671 11.8566C5.7476 11.7739 5.74474 11.6882 5.7587 11.6045C5.77266 11.5207 5.80315 11.4405 5.84839 11.3687C5.89364 11.2968 5.95275 11.2347 6.02225 11.1859C6.09175 11.1357 6.1705 11.0998 6.25394 11.0801C6.33739 11.0605 6.42388 11.0576 6.50846 11.0715C6.59304 11.0855 6.67401 11.116 6.74674 11.1614C6.81947 11.2067 6.88254 11.266 6.93226 11.3359L10.1722 15.8759C10.2356 15.9679 10.3209 16.0426 10.4204 16.0933C10.52 16.1439 10.6306 16.1689 10.7423 16.1659C10.8546 16.1622 10.9643 16.1311 11.0619 16.0753C11.1595 16.0196 11.242 15.9408 11.3023 15.8459L17.0223 6.89587C17.0643 6.81637 17.1225 6.74648 17.193 6.6906C17.2635 6.63472 17.3448 6.59408 17.4318 6.57126C17.5188 6.54843 17.6096 6.54392 17.6985 6.558C17.7873 6.57208 17.8723 6.60445 17.9479 6.65306C18.0236 6.70167 18.0884 6.76546 18.1382 6.84039C18.188 6.91533 18.2216 6.99979 18.2371 7.08841C18.2525 7.17703 18.2494 7.26789 18.2279 7.35524C18.2064 7.44259 18.167 7.52454 18.1123 7.59589L12.3922 16.5959C12.2171 16.8692 11.9781 17.0957 11.6959 17.256C11.4137 17.4163 11.0967 17.5055 10.7723 17.5159L10.7222 17.4659Z" fill="#666666"/>
</svg>

