<svg width="20" height="21" viewBox="0 0 20 21" fill="none" xmlns="http://www.w3.org/2000/svg">
<path d="M16.5833 11.05C16.4497 10.8979 16.376 10.7024 16.376 10.5C16.376 10.2976 16.4497 10.1021 16.5833 9.94999L17.65 8.74999C17.7675 8.61888 17.8405 8.45391 17.8585 8.27875C17.8765 8.10359 17.8385 7.92723 17.75 7.77499L16.0833 4.89166C15.9957 4.73959 15.8624 4.61906 15.7023 4.54723C15.5422 4.47541 15.3635 4.45596 15.1917 4.49166L13.625 4.80833C13.4256 4.84952 13.2181 4.81632 13.0416 4.71499C12.865 4.61367 12.7317 4.45123 12.6667 4.25833L12.1583 2.73333C12.1024 2.56781 11.9959 2.42405 11.8539 2.32236C11.7118 2.22068 11.5414 2.16621 11.3667 2.16666H8.03333C7.85161 2.15718 7.67177 2.20743 7.5213 2.30976C7.37082 2.41208 7.25798 2.56084 7.2 2.73333L6.73333 4.25833C6.66833 4.45123 6.53497 4.61367 6.35842 4.71499C6.18187 4.81632 5.97434 4.84952 5.77499 4.80833L4.16666 4.49166C4.00379 4.46864 3.83774 4.49435 3.68945 4.56553C3.54116 4.63671 3.41725 4.75018 3.33333 4.89166L1.66666 7.77499C1.57596 7.92554 1.53518 8.1009 1.55015 8.27601C1.56511 8.45113 1.63506 8.61703 1.74999 8.74999L2.80833 9.94999C2.94193 10.1021 3.01561 10.2976 3.01561 10.5C3.01561 10.7024 2.94193 10.8979 2.80833 11.05L1.74999 12.25C1.63506 12.383 1.56511 12.5489 1.55015 12.724C1.53518 12.8991 1.57596 13.0745 1.66666 13.225L3.33333 16.1083C3.42091 16.2604 3.55426 16.3809 3.71437 16.4528C3.87448 16.5246 4.05318 16.544 4.225 16.5083L5.79166 16.1917C5.99101 16.1505 6.19854 16.1837 6.37509 16.285C6.55164 16.3863 6.685 16.5488 6.74999 16.7417L7.25833 18.2667C7.31631 18.4391 7.42916 18.5879 7.57963 18.6902C7.73011 18.7926 7.90994 18.8428 8.09166 18.8333H11.425C11.5997 18.8338 11.7701 18.7793 11.9122 18.6776C12.0542 18.5759 12.1608 18.4322 12.2167 18.2667L12.725 16.7417C12.79 16.5488 12.9234 16.3863 13.0999 16.285C13.2764 16.1837 13.484 16.1505 13.6833 16.1917L15.25 16.5083C15.4218 16.544 15.6005 16.5246 15.7606 16.4528C15.9207 16.3809 16.0541 16.2604 16.1417 16.1083L17.8083 13.225C17.8968 13.0728 17.9348 12.8964 17.9168 12.7212C17.8989 12.5461 17.8259 12.3811 17.7083 12.25L16.5833 11.05ZM15.3417 12.1667L16.0083 12.9167L14.9417 14.7667L13.9583 14.5667C13.3581 14.444 12.7338 14.5459 12.2038 14.8532C11.6738 15.1604 11.2751 15.6515 11.0833 16.2333L10.7667 17.1667H8.63333L8.33333 16.2167C8.14154 15.6349 7.74281 15.1437 7.21283 14.8365C6.68285 14.5293 6.05851 14.4273 5.45833 14.55L4.47499 14.75L3.39166 12.9083L4.05833 12.1583C4.46829 11.7 4.69494 11.1066 4.69494 10.4917C4.69494 9.87672 4.46829 9.28335 4.05833 8.82499L3.39166 8.07499L4.45833 6.24166L5.44166 6.44166C6.04185 6.56435 6.66618 6.46239 7.19617 6.15516C7.72615 5.84792 8.12487 5.35679 8.31666 4.77499L8.63333 3.83333H10.7667L11.0833 4.78333C11.2751 5.36513 11.6738 5.85626 12.2038 6.16349C12.7338 6.47073 13.3581 6.57268 13.9583 6.44999L14.9417 6.24999L16.0083 8.09999L15.3417 8.84999C14.9363 9.30729 14.7125 9.89723 14.7125 10.5083C14.7125 11.1194 14.9363 11.7094 15.3417 12.1667ZM9.7 7.16666C9.04072 7.16666 8.39626 7.36216 7.84809 7.72843C7.29993 8.0947 6.87269 8.6153 6.6204 9.22438C6.3681 9.83347 6.30209 10.5037 6.43071 11.1503C6.55933 11.7969 6.8768 12.3908 7.34297 12.857C7.80915 13.3232 8.40309 13.6407 9.04969 13.7693C9.6963 13.8979 10.3665 13.8319 10.9756 13.5796C11.5847 13.3273 12.1053 12.9001 12.4716 12.3519C12.8378 11.8037 13.0333 11.1593 13.0333 10.5C13.0333 9.61594 12.6821 8.76809 12.057 8.14297C11.4319 7.51785 10.5841 7.16666 9.7 7.16666ZM9.7 12.1667C9.37036 12.1667 9.04813 12.0689 8.77404 11.8858C8.49996 11.7026 8.28634 11.4423 8.1602 11.1378C8.03405 10.8333 8.00104 10.4981 8.06535 10.1748C8.12966 9.85154 8.2884 9.55457 8.52148 9.32148C8.75457 9.0884 9.05154 8.92966 9.37484 8.86535C9.69815 8.80104 10.0333 8.83405 10.3378 8.9602C10.6423 9.08634 10.9026 9.29996 11.0858 9.57404C11.2689 9.84813 11.3667 10.1704 11.3667 10.5C11.3667 10.942 11.1911 11.3659 10.8785 11.6785C10.5659 11.9911 10.142 12.1667 9.7 12.1667Z" fill="#5038E3"/>
</svg>
