<svg width="24" height="24" viewBox="0 0 24 24" fill="none" xmlns="http://www.w3.org/2000/svg">
<path d="M12 21C16.9706 21 21 16.9706 21 12C21 7.02944 16.9706 3 12 3C7.02944 3 3 7.02944 3 12C3 16.9706 7.02944 21 12 21Z" fill="#4E4E4E"/>
<path d="M15.5002 16.15C15.4148 16.1501 15.3302 16.1334 15.2513 16.1008C15.1723 16.0682 15.1006 16.0204 15.0402 15.96L8.04016 8.96002C7.91816 8.83802 7.84961 8.67256 7.84961 8.50003C7.84961 8.3275 7.91816 8.16204 8.04016 8.04004C8.16216 7.91804 8.32762 7.84949 8.50015 7.84949C8.67269 7.84949 8.83814 7.91804 8.96014 8.04004L15.9601 15.04C16.0218 15.0997 16.0709 15.1712 16.1044 15.2502C16.1379 15.3292 16.1552 15.4142 16.1552 15.5C16.1552 15.5859 16.1379 15.6708 16.1044 15.7498C16.0709 15.8289 16.0218 15.9003 15.9601 15.96C15.9008 16.0218 15.8292 16.0705 15.7501 16.1032C15.6709 16.1359 15.5858 16.1518 15.5002 16.15Z" fill="white"/>
<path d="M8.5 16.15C8.4146 16.1501 8.33003 16.1334 8.2511 16.1008C8.17217 16.0682 8.10044 16.0203 8.04001 15.96C7.92028 15.8368 7.85327 15.6718 7.85327 15.5C7.85327 15.3282 7.92028 15.1632 8.04001 15.04L15.04 8.04001C15.1632 7.92028 15.3282 7.85327 15.5 7.85327C15.6718 7.85327 15.8368 7.92028 15.96 8.04001C16.0217 8.09969 16.0707 8.17116 16.1042 8.25018C16.1378 8.32921 16.155 8.41417 16.155 8.5C16.155 8.58583 16.1378 8.67079 16.1042 8.74982C16.0707 8.82884 16.0217 8.90031 15.96 8.95999L8.95999 15.96C8.9006 16.0217 8.82908 16.0705 8.74991 16.1032C8.67074 16.1359 8.58564 16.1518 8.5 16.15Z" fill="white"/>
</svg>

