<svg width="18" height="18" viewBox="0 0 18 18" fill="none" xmlns="http://www.w3.org/2000/svg">
<path d="M9 15.75C12.7279 15.75 15.75 12.7279 15.75 9C15.75 5.27208 12.7279 2.25 9 2.25C5.27208 2.25 2.25 5.27208 2.25 9C2.25 12.7279 5.27208 15.75 9 15.75Z" fill="#4E4E4E"/>
<path d="M11.6246 12.1125C11.5606 12.1126 11.4971 12.1 11.438 12.0756C11.3788 12.0511 11.325 12.0152 11.2796 11.97L6.02963 6.71999C5.93813 6.62849 5.88672 6.50439 5.88672 6.37499C5.88672 6.24559 5.93813 6.1215 6.02963 6.03C6.12113 5.9385 6.24523 5.88708 6.37463 5.88708C6.50403 5.88708 6.62812 5.9385 6.71962 6.03L11.9696 11.28C12.0159 11.3248 12.0527 11.3784 12.0778 11.4376C12.1029 11.4969 12.1159 11.5606 12.1159 11.625C12.1159 11.6894 12.1029 11.7531 12.0778 11.8124C12.0527 11.8716 12.0159 11.9252 11.9696 11.97C11.9251 12.0163 11.8714 12.0529 11.8121 12.0774C11.7527 12.1019 11.6889 12.1139 11.6246 12.1125Z" fill="white"/>
<path d="M6.37469 12.1124C6.31065 12.1125 6.24722 12.1 6.18802 12.0755C6.12882 12.0511 6.07503 12.0152 6.0297 11.9699C5.9399 11.8775 5.88965 11.7538 5.88965 11.6249C5.88965 11.4961 5.9399 11.3723 6.0297 11.2799L11.2797 6.02995C11.3721 5.94015 11.4959 5.88989 11.6247 5.88989C11.7535 5.88989 11.8773 5.94015 11.9697 6.02995C12.016 6.0747 12.0528 6.12831 12.0779 6.18758C12.103 6.24685 12.116 6.31056 12.116 6.37494C12.116 6.43932 12.103 6.50303 12.0779 6.5623C12.0528 6.62157 12.016 6.67517 11.9697 6.71993L6.71969 11.9699C6.67515 12.0162 6.62151 12.0528 6.56213 12.0773C6.50275 12.1019 6.43893 12.1138 6.37469 12.1124Z" fill="white"/>
</svg>
