<svg width="24" height="24" viewBox="0 0 24 24" fill="none" xmlns="http://www.w3.org/2000/svg">
<path d="M16.5901 15.67L12.8101 11.89L16.5901 8.11C16.7121 7.988 16.7806 7.82253 16.7806 7.64999C16.7806 7.47746 16.7121 7.312 16.5901 7.19C16.4681 7.068 16.3026 6.99947 16.1301 6.99947C15.9575 6.99947 15.792 7.068 15.67 7.19L11.89 10.97L8.11005 7.19C7.98805 7.068 7.82259 6.99947 7.65005 6.99947C7.47752 6.99947 7.31206 7.068 7.19006 7.19C7.06806 7.312 6.99951 7.47746 6.99951 7.64999C6.99951 7.82253 7.06806 7.988 7.19006 8.11L10.9701 11.89L7.24005 15.67C7.11805 15.792 7.0495 15.9575 7.0495 16.13C7.0495 16.3025 7.11805 16.468 7.24005 16.59C7.36205 16.712 7.52751 16.7805 7.70004 16.7805C7.87258 16.7805 8.03807 16.712 8.16006 16.59L11.9401 12.81L15.7201 16.59C15.7805 16.6504 15.8522 16.6983 15.9311 16.731C16.01 16.7637 16.0946 16.7805 16.1801 16.7805C16.2655 16.7805 16.3501 16.7637 16.429 16.731C16.5079 16.6983 16.5796 16.6504 16.64 16.59C16.7005 16.5296 16.7484 16.4579 16.7811 16.379C16.8138 16.3 16.8306 16.2154 16.8306 16.13C16.8306 16.0446 16.8138 15.96 16.7811 15.881C16.7484 15.8021 16.7005 15.7304 16.64 15.67H16.5901Z" fill="#4E4E4E"/>
</svg>

